<svg xmlns="http://www.w3.org/2000/svg" fill-rule="evenodd" stroke-linejoin="round" stroke-miterlimit="2" clip-rule="evenodd" viewBox="0 0 512 512" id="tiktok"><path fill="#fff" stroke="#000" stroke-linecap="round" stroke-miterlimit="1.5" stroke-width="10.2" d="M301.887,-25L330.887,6C337.774,57.594 360.586,92.038 400.706,107.841C402.08,108.382 417.101,86.342 417.101,86.342C417.101,86.342 434.343,104.034 446.101,117.342L446.101,198.47C406.836,202.267 369.069,194.578 334.387,163.233L334.26,332.806C320.398,487.734 153.626,508.799 76.064,431.161C62.966,418.05 38.448,390.674 38.448,390.674C38.448,390.674 36.859,351.428 36.859,332.806C36.45,252.293 176.502,149.657 176.502,149.657C176.502,149.657 190.885,164.206 205.502,179.847L205.502,260.506C121.302,243.497 86.21,345.131 152.719,384.815C192.826,408.747 247.435,385.169 253.315,332.806L301.887,-25Z" transform="translate(28.938 31)"></path><path fill="none" stroke="#000" stroke-linecap="round" stroke-miterlimit="1.5" stroke-width="10.2" d="M205.595,203.477L234.44,233.072"></path><path fill="none" stroke="#000" stroke-linecap="round" stroke-miterlimit="1.5" stroke-width="10.2" d="M205.44,203.322L234.44,233.072" transform="translate(0 56)"></path><path fill="none" stroke="#000" stroke-linecap="round" stroke-miterlimit="1.5" stroke-width="10.2" d="M205.44,203.258L234.44,233.14" transform="translate(0 29)"></path><path fill="none" stroke="#000" stroke-linecap="round" stroke-miterlimit="1.5" stroke-width="10.2" d="M204.556,202.438L234.595,233.292" transform="translate(-29 57)"></path><path fill="none" stroke="#000" stroke-linecap="round" stroke-miterlimit="1.5" stroke-width="10.2" d="M206.023,203.905L235.819,234.451" transform="translate(-55 64)"></path><path fill="none" stroke="#000" stroke-linecap="round" stroke-miterlimit="1.5" stroke-width="10.2" d="M204.899,202.735L234.396,233.095" transform="translate(-73 82)"></path><path fill="none" stroke="#000" stroke-linecap="round" stroke-miterlimit="1.5" stroke-width="10.2" d="M205.514,203.396L234.781,233.486" transform="translate(-85 104)"></path><path fill="none" stroke="#000" stroke-linecap="round" stroke-miterlimit="1.5" stroke-width="10.2" d="M205.595,203.478L234.488,233.12" transform="translate(-87 133)"></path><path fill="none" stroke="#000" stroke-linecap="round" stroke-miterlimit="1.5" stroke-width="10.2" d="M205.595,203.478L236.855,235.487" transform="translate(-87 257)"></path><path fill="none" stroke="#000" stroke-linecap="round" stroke-miterlimit="1.5" stroke-width="10.2" d="M203.596,201.359L234.027,232.659" transform="translate(-52 270)"></path><path fill="none" stroke="#000" stroke-linecap="round" stroke-miterlimit="1.5" stroke-width="10.2" d="M204.139,202.021L234.389,233.021" transform="translate(-20 273)"></path><path fill="none" stroke="#000" stroke-linecap="round" stroke-miterlimit="1.5" stroke-width="10.2" d="M204.836,202.636L234.761,233.471" transform="translate(9 270)"></path><path fill="none" stroke="#000" stroke-linecap="round" stroke-miterlimit="1.5" stroke-width="10.2" d="M204.552,202.434L234.461,233.093" transform="translate(36 263)"></path><path fill="none" stroke="#000" stroke-linecap="round" stroke-miterlimit="1.5" stroke-width="10.2" d="M205.264,203.077L235,233.632" transform="translate(59 251)"></path><path fill="none" stroke="#000" stroke-linecap="round" stroke-miterlimit="1.5" stroke-width="10.2" d="M206.055,203.892L235.629,234.366" transform="translate(80 234)"></path><path fill="none" stroke="#000" stroke-linecap="round" stroke-miterlimit="1.5" stroke-width="10.2" d="M205.634,203.459L235.104,233.824" transform="translate(98 215)"></path><path fill="none" stroke="#000" stroke-linecap="round" stroke-miterlimit="1.5" stroke-width="10.2" d="M205.912,203.795L235.297,234.018" transform="translate(111 193)"></path><path fill="none" stroke="#000" stroke-linecap="round" stroke-miterlimit="1.5" stroke-width="10.2" d="M204.613,202.406L233.872,232.555" transform="translate(122 170)"></path><path fill="none" stroke="#000" stroke-linecap="round" stroke-miterlimit="1.5" stroke-width="10.2" d="M204.416,202.203L233.567,232.241" transform="translate(128 145)"></path><path fill="none" stroke="#000" stroke-linecap="round" stroke-miterlimit="1.5" stroke-width="10.2" d="M205.303,203.185L234.21,232.842" transform="translate(129 115)"></path><path fill="none" stroke="#000" stroke-linecap="round" stroke-miterlimit="1.5" stroke-width="10.2" d="M205.323,203.205L234.323,233.015" transform="translate(129 82)"></path><path fill="none" stroke="#000" stroke-linecap="round" stroke-miterlimit="1.5" stroke-width="10.2" d="M205.323,203.137L234.259,232.954" transform="translate(129 49)"></path><path fill="none" stroke="#000" stroke-linecap="round" stroke-miterlimit="1.5" stroke-width="10.2" d="M205.323,203.205L234.323,233.015" transform="translate(129 17)"></path><path fill="none" stroke="#000" stroke-linecap="round" stroke-miterlimit="1.5" stroke-width="10.2" d="M205.323,203.205L234.323,232.955" transform="translate(129 -37)"></path><path fill="none" stroke="#000" stroke-linecap="round" stroke-miterlimit="1.5" stroke-width="10.2" d="M205.303,203.117L234.323,233.02" transform="translate(129 -11)"></path><path fill="none" stroke="#000" stroke-linecap="round" stroke-miterlimit="1.5" stroke-width="10.2" d="M206.684,204.504L236.039,234.671" transform="translate(239 -6)"></path><path fill="none" stroke="#000" stroke-linecap="round" stroke-miterlimit="1.5" stroke-width="10.2" d="M203.865,201.635L234.121,232.753" transform="translate(209 -3)"></path><path fill="none" stroke="#000" stroke-linecap="round" stroke-miterlimit="1.5" stroke-width="10.2" d="M204.774,202.656L235.684,234.411" transform="translate(171 -13)"></path><path fill="none" stroke="#000" stroke-linecap="round" stroke-miterlimit="1.5" stroke-width="10.2" d="M204.684,202.48L234.039,232.727" transform="translate(241 -32)"></path><path fill="none" stroke="#000" stroke-linecap="round" stroke-miterlimit="1.5" stroke-width="10.2" d="M205.039,202.845L234.039,232.727" transform="translate(241 -59)"></path><path fill="none" stroke="#000" stroke-linecap="round" stroke-miterlimit="1.5" stroke-width="10.2" d="M205.191,203.073L233.597,232.229" transform="translate(133 -164)"></path><path fill="#fff" stroke="#000" stroke-linecap="round" stroke-miterlimit="1.5" stroke-width="10.2" d="M253.627,6L330.887,6C340.045,74.611 377.366,112.892 446.101,117.342L446.101,198.47C406.836,202.267 369.069,194.578 334.387,163.233L334.26,332.806C316.144,535.281 36.859,509.121 36.859,332.806C36.32,226.675 114.568,168.21 205.502,179.847L205.502,260.506C121.302,243.497 86.21,345.131 152.719,384.815C192.826,408.747 247.435,385.169 253.315,332.806L253.627,6Z" transform="translate(-.062)"></path></svg>