<svg height="500px" width="500px" version="1.1" id="Layer_1" xmlns="http://www.w3.org/2000/svg" xmlns:xlink="http://www.w3.org/1999/xlink" 
	 viewBox="0 0 448 448" xml:space="preserve">
<g transform="translate(0 -1020.36)">
	<g shape-rendering="auto" image-rendering="auto" color-rendering="auto" color-interpolation="sRGB">
		<path style="fill:#5A3392;" d="M82.687,1020.36C37.029,1020.36,0,1057.387,0,1103.047v200.5h19.812v16H0v20h19.812v16H0v30.125
			c0,45.66,37.029,82.688,82.687,82.688h282.625c45.659,0,82.687-37.027,82.688-82.688v-96.969h-18.188v-16H448v-20h-18.188v-16H448
			v-133.656c0-45.658-37.028-82.687-82.688-82.687L82.687,1020.36L82.687,1020.36z"/>
		<path style="fill:#FFFFFF;" d="M82.675,1036.299h282.625c37.072,0,66.625,29.678,66.625,66.748v77.342h-416v-77.342
			C15.925,1065.975,45.604,1036.298,82.675,1036.299L82.675,1036.299z"/>
		<path style="fill:#EE746C;" d="M15.925,1196.36h416v189.313c0,37.074-29.553,66.75-66.625,66.75H82.675
			c-37.071,0-66.75-29.678-66.75-66.75L15.925,1196.36L15.925,1196.36z"/>
		<path style="fill:#EBFEFF;" d="M92.379,1041.249h263.208c34.526,0,62.048,27.639,62.048,62.164v72.031H30.216v-72.031
			C30.216,1068.887,57.855,1041.25,92.379,1041.249L92.379,1041.249z"/>
		<g>
			<path style="fill:#5A3392;" d="M223.923,1052.376c-19.071,0-45.148,4.953-66.968,9.803c-21.821,4.852-39.095,9.686-39.095,9.686
				c-4.159,1.141-6.665,5.373-5.666,9.568l18.898,76.889c1.032,4.037,4.988,6.605,9.094,5.906c0,0,56.996-9.447,83.74-9.447
				s83.74,9.447,83.74,9.447c4.148,0.768,8.179-1.816,9.213-5.906l18.898-76.889c0.999-4.195-1.507-8.428-5.666-9.568
				c0,0-17.392-4.836-39.213-9.686c-21.82-4.85-47.898-9.803-66.968-9.803H223.923z"/>
			<path style="fill:#29A3EC;" d="M223.923,1068.321c16.164,0,42.172,4.699,63.543,9.447c17.158,3.816,25.84,6.207,30.827,7.561
				l-15.355,62.361c-8.27-1.393-51.295-8.857-79.016-8.857c-27.718,0-70.618,7.461-78.898,8.857l-15.354-62.361
				c4.989-1.359,13.668-3.744,30.826-7.561C181.868,1073.02,207.758,1068.321,223.923,1068.321z"/>
			<path style="fill:#3CDEF6;" d="M223.932,1074.819c13.517,0,35.265,3.932,53.136,7.902c14.348,3.188,21.607,5.189,25.778,6.32
				l-12.84,52.148c-6.916-1.168-42.892-7.408-66.073-7.408c-23.178,0-59.051,6.238-65.975,7.408l-12.84-52.148
				c4.173-1.137,11.43-3.133,25.777-6.32C188.766,1078.753,210.415,1074.819,223.932,1074.819L223.932,1074.819z"/>
			<path style="fill:#5A3392;" d="M216.009,1100.329v48.07h15.945v-48.07H216.009L216.009,1100.329z"/>
		</g>
		<path style="fill:#FB9761;" d="M30.205,1205.225h387.44v176.203c0,34.508-27.524,62.129-62.051,62.129H92.373
			c-34.526,0-62.167-27.621-62.167-62.129L30.205,1205.225L30.205,1205.225z"/>
		<path style="fill:#FFFFFF;" d="M395.82,1365.467c-4.418,0.047-7.962,3.668-7.914,8.086c0,0.021,0.001,0.041,0.001,0.063
			c0,22.189-17.734,40.039-39.921,40.039c-4.403-0.371-8.273,2.898-8.643,7.303c-0.37,4.402,2.899,8.271,7.302,8.643
			c0.446,0.037,0.895,0.037,1.341,0c30.833,0,55.984-25.15,55.984-55.986c0.082-4.418-3.432-8.066-7.85-8.148
			c-0.1-0.002-0.2-0.002-0.299,0L395.82,1365.467z"/>
	</g>
	<path style="fill:#FFFFFF;" d="M323.962,1421.622c0,4.418-3.582,8-8,8s-8-3.582-8-8s3.582-8,8-8S323.962,1417.204,323.962,1421.622
		z"/>
	<path shape-rendering="auto" image-rendering="auto" color-rendering="auto" color-interpolation="sRGB" style="fill:#5A3392;" d="
		M85.703,1056.264c-21.997,0-39.921,18.043-39.921,40.039c-0.372,4.402,2.896,8.273,7.299,8.646
		c4.403,0.371,8.274-2.896,8.646-7.299c0.038-0.449,0.038-0.898,0-1.348c0-13.35,10.627-24.096,23.977-24.096
		c4.403,0.377,8.277-2.887,8.654-7.289c0.377-4.402-2.887-8.277-7.29-8.654C86.613,1056.225,86.157,1056.225,85.703,1056.264z"/>
</g>
</svg>