<svg width="800px" height="800px" viewBox="0 0 64 64" version="1.1" xml:space="preserve" xmlns="http://www.w3.org/2000/svg" xmlns:xlink="http://www.w3.org/1999/xlink">

<style type="text/css">
	.st0{fill:#FFEEA9;}
	.st1{fill:#D32436;}
	.st2{fill:#8DD1D3;}
	.st3{fill:#330D00;}
	.st4{fill:none;stroke:#330D00;stroke-linecap:round;stroke-linejoin:round;stroke-miterlimit:10;}
</style>

<g id="_x34_0-Id_Card"/>

<g id="_x33_9-Formula"/>

<g id="_x33_8-Elbow"/>

<g id="_x33_7-Diploma"/>

<g id="_x33_6-Laptop"/>

<g id="_x33_5-Brush">

<g>

<g>

<path class="st2" d="M50.1,1.4c1.2,0.7,1.4,2.5,0.5,4.1L28.8,43.3l-0.2,0.3c-1.3,2.3-3.8,3.3-5.5,2.3c-1.7-1-1.9-3.6-0.6-5.8     l0.2-0.4L46.2,2.9C47.2,1.3,48.9,0.7,50.1,1.4z"/>

</g>

<g>

<path class="st0" d="M28.6,43.6l0.2-0.3c-0.1,1.7-0.6,3.6-1.7,5.5c-3.4,5.5-14.2,14.1-14.2,14.1s2.5-13.6,5.9-19.1     c1.2-1.9,2.7-3.2,4.1-4.1l-0.2,0.4c-1.3,2.2-1.1,4.8,0.6,5.8C24.8,46.9,27.3,45.9,28.6,43.6z"/>

</g>

<g>

<path class="st3" d="M50.7,0.5L50.7,0.5c-1.7-1-4.1-0.2-5.4,1.8L22,38.9c-1.7,1.1-3.1,2.5-4.2,4.3c-3.4,5.6-5.9,18.9-6,19.5     c-0.1,0.5,0.1,0.9,0.5,1.1c0.2,0.1,0.4,0.2,0.6,0.2c0.2,0,0.5-0.1,0.7-0.2C14,63.4,24.6,55,28,49.4c1.1-1.8,1.7-3.7,1.9-5.7     L51.5,6.1C52.8,4,52.4,1.5,50.7,0.5z M26.1,48.2c-2.3,3.7-8.2,9-11.6,11.8c0.9-4.3,2.9-12,5.1-15.7c0.3-0.5,0.6-0.9,1-1.3     c0,0.1,0,0.2,0,0.3c0,0.2,0,0.5,0.1,0.7c0,0.1,0.1,0.3,0.1,0.4c0.1,0.2,0.1,0.4,0.2,0.6c0.1,0.1,0.1,0.2,0.2,0.4     c0.1,0.2,0.2,0.4,0.4,0.6c0.1,0.1,0.1,0.2,0.2,0.3c0.2,0.2,0.5,0.5,0.8,0.7c0.3,0.2,0.6,0.3,0.9,0.4c0.1,0,0.2,0,0.3,0.1     c0.2,0.1,0.5,0.1,0.7,0.1c0.1,0,0.1,0,0.2,0c0,0,0.1,0,0.1,0c0.3,0,0.7,0,1-0.1c0.4-0.1,0.8-0.2,1.1-0.4     C26.7,47.3,26.4,47.8,26.1,48.2z M49.6,5L27.9,42.7L27.7,43c-0.6,1-1.5,1.8-2.5,2.1c-0.4,0.1-1,0.2-1.5-0.2     c-1.1-0.7-1.2-2.6-0.2-4.3L47.2,3.5c0.5-0.8,1.2-1.3,1.9-1.3c0.2,0,0.4,0,0.5,0.1C50.1,2.7,50.3,3.8,49.6,5z"/>

</g>

</g>

</g>

<g id="_x33_4-Baseball"/>

<g id="_x33_3-Student"/>

<g id="_x33_2-Highlighter"/>

<g id="_x33_1-Ruler"/>

<g id="_x33_0-Caliper"/>

<g id="_x32_9-Ruler_Elbow"/>

<g id="_x32_8-Abacus"/>

<g id="_x32_7-Id_Card"/>

<g id="_x32_6-Eraser"/>

<g id="_x32_5-Pencil"/>

<g id="_x32_4-Ink"/>

<g id="_x32_3-Graduation_Cap"/>

<g id="_x32_2-_Sling_Bag"/>

<g id="_x32_1-Rugby_Ball"/>

<g id="_x32_0-Clock"/>

<g id="_x31_9-Certificate"/>

<g id="_x31_8-Idea"/>

<g id="_x31_7-Bookshelf"/>

<g id="_x31_6-Formula"/>

<g id="_x31_5-Bell"/>

<g id="_x31_4-Magnifying_Glass"/>

<g id="_x31_3-Calculator"/>

<g id="_x31_2-Eyeglasses"/>

<g id="_x31_1-Bus"/>

<g id="_x31_0-Trophy"/>

<g id="_x39_-Globe"/>

<g id="_x38_-Basket_Ball"/>

<g id="_x37_-Pen"/>

<g id="_x36_-Board"/>

<g id="_x35_-Bag"/>

<g id="_x34_-Exam"/>

<g id="_x33_-Book"/>

<g id="_x32_-Ruler"/>

<g id="_x31_-Building"/>

</svg>